<mxfile host="app.diagrams.net" modified="2024-04-11T10:32:11.199Z" agent="Mozilla/5.0 (Macintosh; Intel Mac OS X 10_15_7) AppleWebKit/537.36 (KHTML, like Gecko) Chrome/123.0.0.0 Safari/537.36" etag="ndGDaXYkJI8bQB9dLaL_" version="24.2.3" type="github">
  <diagram name="Page-1" id="c7558073-3199-34d8-9f00-42111426c3f3">
    <mxGraphModel dx="2074" dy="1070" grid="1" gridSize="10" guides="1" tooltips="1" connect="1" arrows="1" fold="1" page="1" pageScale="1" pageWidth="826" pageHeight="1169" background="none" math="0" shadow="0">
      <root>
        <mxCell id="0" />
        <mxCell id="1" parent="0" />
        <mxCell id="4" value="Stateful value" style="whiteSpace=wrap;align=center;verticalAlign=middle;fontStyle=1;strokeWidth=3;fillColor=#FFFFCC" parent="1" vertex="1">
          <mxGeometry x="40" y="481" width="90" height="60" as="geometry" />
        </mxCell>
        <mxCell id="37" value="" style="edgeStyle=none;noEdgeStyle=1;strokeColor=#990000;strokeWidth=2;exitX=1;exitY=0.5;exitDx=0;exitDy=0;entryX=0;entryY=0.5;entryDx=0;entryDy=0;" parent="1" source="4" target="Bupd_GR4BdfSbWgs7CEX-97" edge="1">
          <mxGeometry width="100" height="100" relative="1" as="geometry">
            <mxPoint x="250" y="477.58620689655163" as="sourcePoint" />
            <mxPoint x="170" y="510" as="targetPoint" />
          </mxGeometry>
        </mxCell>
        <mxCell id="Bupd_GR4BdfSbWgs7CEX-97" value="Scoped to single component?" style="rhombus;whiteSpace=wrap;html=1;strokeColor=#d79b00;strokeWidth=3;align=center;verticalAlign=middle;fontFamily=Helvetica;fontSize=12;fontStyle=1;fillColor=#ffe6cc;" vertex="1" parent="1">
          <mxGeometry x="180" y="429.25" width="163.5" height="163.5" as="geometry" />
        </mxCell>
        <mxCell id="Bupd_GR4BdfSbWgs7CEX-98" value="Component&lt;div&gt;useState()&lt;/div&gt;" style="shape=process;whiteSpace=wrap;html=1;backgroundOutline=1;strokeColor=#6c8ebf;strokeWidth=3;align=center;verticalAlign=middle;fontFamily=Helvetica;fontSize=12;fontStyle=1;fillColor=#dae8fc;" vertex="1" parent="1">
          <mxGeometry x="360" y="410" width="120" height="60" as="geometry" />
        </mxCell>
        <mxCell id="Bupd_GR4BdfSbWgs7CEX-100" value="" style="edgeStyle=none;noEdgeStyle=1;strokeColor=#990000;strokeWidth=2;exitX=1;exitY=0;exitDx=0;exitDy=0;entryX=0;entryY=0.5;entryDx=0;entryDy=0;" edge="1" parent="1" source="Bupd_GR4BdfSbWgs7CEX-97" target="Bupd_GR4BdfSbWgs7CEX-98">
          <mxGeometry width="100" height="100" relative="1" as="geometry">
            <mxPoint x="140" y="521" as="sourcePoint" />
            <mxPoint x="190" y="521" as="targetPoint" />
          </mxGeometry>
        </mxCell>
        <mxCell id="Bupd_GR4BdfSbWgs7CEX-101" value="Yes" style="edgeLabel;html=1;align=center;verticalAlign=middle;resizable=0;points=[];strokeColor=default;strokeWidth=3;fontFamily=Helvetica;fontSize=12;fontColor=default;fontStyle=1;fillColor=#FFFFCC;" vertex="1" connectable="0" parent="Bupd_GR4BdfSbWgs7CEX-100">
          <mxGeometry x="0.0211" y="2" relative="1" as="geometry">
            <mxPoint as="offset" />
          </mxGeometry>
        </mxCell>
        <mxCell id="Bupd_GR4BdfSbWgs7CEX-102" value="Is it scoped to&amp;nbsp;&lt;div&gt;a single page?&lt;/div&gt;" style="rhombus;whiteSpace=wrap;html=1;strokeColor=#d79b00;strokeWidth=3;align=center;verticalAlign=middle;fontFamily=Helvetica;fontSize=12;fontStyle=1;fillColor=#ffe6cc;" vertex="1" parent="1">
          <mxGeometry x="343.5" y="550" width="163.5" height="163.5" as="geometry" />
        </mxCell>
        <mxCell id="Bupd_GR4BdfSbWgs7CEX-103" value="" style="edgeStyle=none;noEdgeStyle=1;strokeColor=#990000;strokeWidth=2;exitX=1;exitY=1;exitDx=0;exitDy=0;entryX=0;entryY=0;entryDx=0;entryDy=0;" edge="1" parent="1" source="Bupd_GR4BdfSbWgs7CEX-97" target="Bupd_GR4BdfSbWgs7CEX-102">
          <mxGeometry width="100" height="100" relative="1" as="geometry">
            <mxPoint x="313" y="480" as="sourcePoint" />
            <mxPoint x="370" y="450" as="targetPoint" />
          </mxGeometry>
        </mxCell>
        <mxCell id="Bupd_GR4BdfSbWgs7CEX-104" value="No" style="edgeLabel;html=1;align=center;verticalAlign=middle;resizable=0;points=[];strokeColor=default;strokeWidth=3;fontFamily=Helvetica;fontSize=12;fontColor=default;fontStyle=1;fillColor=#FFFFCC;" vertex="1" connectable="0" parent="Bupd_GR4BdfSbWgs7CEX-103">
          <mxGeometry x="0.0211" y="2" relative="1" as="geometry">
            <mxPoint as="offset" />
          </mxGeometry>
        </mxCell>
        <mxCell id="Bupd_GR4BdfSbWgs7CEX-105" value="Zustand/Redux" style="shape=process;whiteSpace=wrap;html=1;backgroundOutline=1;strokeColor=#6c8ebf;strokeWidth=3;align=center;verticalAlign=middle;fontFamily=Helvetica;fontSize=12;fontStyle=1;fillColor=#dae8fc;" vertex="1" parent="1">
          <mxGeometry x="600" y="410" width="120" height="60" as="geometry" />
        </mxCell>
        <mxCell id="Bupd_GR4BdfSbWgs7CEX-106" value="" style="edgeStyle=none;noEdgeStyle=1;strokeColor=#990000;strokeWidth=2;exitX=1;exitY=0;exitDx=0;exitDy=0;entryX=0;entryY=0.5;entryDx=0;entryDy=0;" edge="1" parent="1" source="Bupd_GR4BdfSbWgs7CEX-102" target="Bupd_GR4BdfSbWgs7CEX-105">
          <mxGeometry width="100" height="100" relative="1" as="geometry">
            <mxPoint x="313" y="562" as="sourcePoint" />
            <mxPoint x="394" y="601" as="targetPoint" />
          </mxGeometry>
        </mxCell>
        <mxCell id="Bupd_GR4BdfSbWgs7CEX-107" value="No" style="edgeLabel;html=1;align=center;verticalAlign=middle;resizable=0;points=[];strokeColor=default;strokeWidth=3;fontFamily=Helvetica;fontSize=12;fontColor=default;fontStyle=1;fillColor=#FFFFCC;" vertex="1" connectable="0" parent="Bupd_GR4BdfSbWgs7CEX-106">
          <mxGeometry x="0.0211" y="2" relative="1" as="geometry">
            <mxPoint as="offset" />
          </mxGeometry>
        </mxCell>
      </root>
    </mxGraphModel>
  </diagram>
</mxfile>
